<svg xmlns="http://www.w3.org/2000/svg" viewBox="0 0 900 420" width="900" height="420" role="img" aria-label="Gokul's skill constellation">
  <defs>
    <radialGradient id="skybg" cx="50%" cy="30%" r="80%">
      <stop offset="0%" stop-color="#0f172a"/>
      <stop offset="100%" stop-color="#020617"/>
    </radialGradient>
    <radialGradient id="starglow" cx="50%" cy="50%" r="50%">
      <stop offset="0%" stop-color="#6ee7b7" stop-opacity="0.7"/>
      <stop offset="100%" stop-color="#6ee7b7" stop-opacity="0"/>
    </radialGradient>
    <radialGradient id="starglow2" cx="50%" cy="50%" r="50%">
      <stop offset="0%" stop-color="#38bdf8" stop-opacity="0.6"/>
      <stop offset="100%" stop-color="#38bdf8" stop-opacity="0"/>
    </radialGradient>
    <radialGradient id="starglow3" cx="50%" cy="50%" r="50%">
      <stop offset="0%" stop-color="#fbbf24" stop-opacity="0.6"/>
      <stop offset="100%" stop-color="#fbbf24" stop-opacity="0"/>
    </radialGradient>
  </defs>
  <rect x="0.5" y="0.5" width="899" height="419" rx="14" fill="url(#skybg)" stroke="#1e293b" stroke-width="1"/>
  <g fill="#f1f5f9">
    <circle cx="45" cy="60" r="0.9" opacity="0.55"><animate attributeName="opacity" values="0.2;0.8;0.2" dur="3.2s" begin="0.1s" repeatCount="indefinite"/></circle>
    <circle cx="88" cy="230" r="0.7" opacity="0.4"><animate attributeName="opacity" values="0.1;0.6;0.1" dur="4s" begin="0.6s" repeatCount="indefinite"/></circle>
    <circle cx="140" cy="30" r="1.1" opacity="0.7"><animate attributeName="opacity" values="0.3;0.9;0.3" dur="2.8s" begin="1.1s" repeatCount="indefinite"/></circle>
    <circle cx="220" cy="380" r="0.7" opacity="0.35"><animate attributeName="opacity" values="0.1;0.5;0.1" dur="3.5s" begin="0.4s" repeatCount="indefinite"/></circle>
    <circle cx="400" cy="20" r="0.9" opacity="0.6"><animate attributeName="opacity" values="0.2;0.8;0.2" dur="4.2s" begin="1.8s" repeatCount="indefinite"/></circle>
    <circle cx="470" cy="230" r="0.6" opacity="0.35"><animate attributeName="opacity" values="0.1;0.5;0.1" dur="3.7s" begin="2.4s" repeatCount="indefinite"/></circle>
    <circle cx="560" cy="35" r="0.8" opacity="0.5"><animate attributeName="opacity" values="0.2;0.7;0.2" dur="3s" begin="0.9s" repeatCount="indefinite"/></circle>
    <circle cx="640" cy="240" r="0.7" opacity="0.4"><animate attributeName="opacity" values="0.15;0.6;0.15" dur="3.4s" begin="1.5s" repeatCount="indefinite"/></circle>
    <circle cx="750" cy="60" r="1" opacity="0.65"><animate attributeName="opacity" values="0.25;0.85;0.25" dur="2.6s" begin="0.3s" repeatCount="indefinite"/></circle>
    <circle cx="820" cy="230" r="0.8" opacity="0.45"><animate attributeName="opacity" values="0.15;0.6;0.15" dur="3.8s" begin="2s" repeatCount="indefinite"/></circle>
    <circle cx="870" cy="380" r="0.6" opacity="0.35"><animate attributeName="opacity" values="0.1;0.5;0.1" dur="3s" begin="0.7s" repeatCount="indefinite"/></circle>
    <circle cx="60" cy="380" r="0.8" opacity="0.5"><animate attributeName="opacity" values="0.2;0.7;0.2" dur="3.3s" begin="2.1s" repeatCount="indefinite"/></circle>
    <circle cx="340" cy="290" r="0.7" opacity="0.4"><animate attributeName="opacity" values="0.15;0.6;0.15" dur="4.1s" begin="0.5s" repeatCount="indefinite"/></circle>
    <circle cx="510" cy="380" r="0.9" opacity="0.55"><animate attributeName="opacity" values="0.2;0.8;0.2" dur="2.9s" begin="1.4s" repeatCount="indefinite"/></circle>
    <circle cx="720" cy="380" r="0.7" opacity="0.4"><animate attributeName="opacity" values="0.15;0.6;0.15" dur="3.6s" begin="0.8s" repeatCount="indefinite"/></circle>
  </g>
  <text x="450" y="35" font-family="ui-monospace,SFMono-Regular,Menlo,monospace" font-size="13" fill="#475569" text-anchor="middle" letter-spacing="2">// SKILL CONSTELLATION</text>
  <line x1="330" y1="45" x2="570" y2="45" stroke="#1e293b" stroke-width="1"/>
  <text x="200" y="80" font-family="ui-monospace,Menlo,monospace" font-size="11" fill="#38bdf8" text-anchor="middle" letter-spacing="2" font-weight="600">FRONTEND</text>
  <g stroke="#38bdf8" stroke-width="1" opacity="0.15">
    <line x1="100" y1="115" x2="140" y2="185"/>
    <line x1="200" y1="105" x2="250" y2="175"/>
    <line x1="300" y1="120" x2="140" y2="185"/>
    <line x1="140" y1="185" x2="250" y2="175"/>
    <line x1="250" y1="175" x2="350" y2="190"/>
  </g>
  <g><circle cx="100" cy="115" r="10" fill="url(#starglow2)"/><circle cx="100" cy="115" r="4" fill="#38bdf8"><animate attributeName="opacity" values="1;0.5;1" dur="2.8s" begin="0.2s" repeatCount="indefinite"/></circle><text x="100" y="140" font-family="ui-monospace,Menlo,monospace" font-size="11" fill="#cbd5e1" text-anchor="middle">HTML5</text></g>
  <g><circle cx="200" cy="105" r="10" fill="url(#starglow2)"/><circle cx="200" cy="105" r="4" fill="#38bdf8"><animate attributeName="opacity" values="1;0.5;1" dur="3.1s" begin="0.7s" repeatCount="indefinite"/></circle><text x="200" y="130" font-family="ui-monospace,Menlo,monospace" font-size="11" fill="#cbd5e1" text-anchor="middle">CSS3</text></g>
  <g><circle cx="300" cy="120" r="12" fill="url(#starglow3)"/><circle cx="300" cy="120" r="5" fill="#fbbf24"><animate attributeName="opacity" values="1;0.6;1" dur="2.4s" begin="1.1s" repeatCount="indefinite"/></circle><text x="300" y="145" font-family="ui-monospace,Menlo,monospace" font-size="11" fill="#f1f5f9" text-anchor="middle" font-weight="600">JavaScript</text></g>
  <g><circle cx="140" cy="185" r="14" fill="url(#starglow)"/><circle cx="140" cy="185" r="6" fill="#6ee7b7"><animate attributeName="opacity" values="1;0.7;1" dur="2.2s" begin="0.4s" repeatCount="indefinite"/></circle><text x="140" y="212" font-family="ui-monospace,Menlo,monospace" font-size="12" fill="#f1f5f9" text-anchor="middle" font-weight="700">React</text></g>
  <g><circle cx="250" cy="175" r="10" fill="url(#starglow2)"/><circle cx="250" cy="175" r="4" fill="#38bdf8"><animate attributeName="opacity" values="1;0.5;1" dur="2.7s" begin="1.6s" repeatCount="indefinite"/></circle><text x="250" y="200" font-family="ui-monospace,Menlo,monospace" font-size="11" fill="#cbd5e1" text-anchor="middle">Tailwind</text></g>
  <g><circle cx="350" cy="190" r="8" fill="url(#starglow2)"/><circle cx="350" cy="190" r="3.5" fill="#38bdf8"><animate attributeName="opacity" values="0.8;0.4;0.8" dur="3.3s" begin="2s" repeatCount="indefinite"/></circle><text x="350" y="212" font-family="ui-monospace,Menlo,monospace" font-size="10" fill="#94a3b8" text-anchor="middle">Bootstrap</text></g>
  <text x="700" y="80" font-family="ui-monospace,Menlo,monospace" font-size="11" fill="#22c55e" text-anchor="middle" letter-spacing="2" font-weight="600">BACKEND</text>
  <g stroke="#22c55e" stroke-width="1" opacity="0.15">
    <line x1="580" y1="115" x2="680" y2="105"/>
    <line x1="680" y1="105" x2="780" y2="120"/>
    <line x1="680" y1="105" x2="620" y2="185"/>
    <line x1="620" y1="185" x2="750" y2="190"/>
    <line x1="780" y1="120" x2="750" y2="190"/>
  </g>
  <g><circle cx="580" cy="115" r="14" fill="url(#starglow)"/><circle cx="580" cy="115" r="6" fill="#6ee7b7"><animate attributeName="opacity" values="1;0.7;1" dur="2.3s" begin="0.5s" repeatCount="indefinite"/></circle><text x="580" y="142" font-family="ui-monospace,Menlo,monospace" font-size="12" fill="#f1f5f9" text-anchor="middle" font-weight="700">Node.js</text></g>
  <g><circle cx="680" cy="105" r="10" fill="url(#starglow)"/><circle cx="680" cy="105" r="4" fill="#6ee7b7"><animate attributeName="opacity" values="1;0.5;1" dur="2.6s" begin="0.9s" repeatCount="indefinite"/></circle><text x="680" y="130" font-family="ui-monospace,Menlo,monospace" font-size="11" fill="#cbd5e1" text-anchor="middle">Express</text></g>
  <g><circle cx="780" cy="120" r="10" fill="url(#starglow)"/><circle cx="780" cy="120" r="4" fill="#6ee7b7"><animate attributeName="opacity" values="1;0.5;1" dur="2.9s" begin="1.3s" repeatCount="indefinite"/></circle><text x="780" y="145" font-family="ui-monospace,Menlo,monospace" font-size="11" fill="#cbd5e1" text-anchor="middle">MongoDB</text></g>
  <g><circle cx="620" cy="185" r="9" fill="url(#starglow)"/><circle cx="620" cy="185" r="4" fill="#6ee7b7"><animate attributeName="opacity" values="0.9;0.5;0.9" dur="3s" begin="1.7s" repeatCount="indefinite"/></circle><text x="620" y="210" font-family="ui-monospace,Menlo,monospace" font-size="11" fill="#cbd5e1" text-anchor="middle">MySQL</text></g>
  <g><circle cx="750" cy="190" r="9" fill="url(#starglow)"/><circle cx="750" cy="190" r="4" fill="#6ee7b7"><animate attributeName="opacity" values="0.9;0.5;0.9" dur="3.2s" begin="2.1s" repeatCount="indefinite"/></circle><text x="750" y="212" font-family="ui-monospace,Menlo,monospace" font-size="11" fill="#cbd5e1" text-anchor="middle">REST API</text></g>
  <path d="M 140,185 Q 350,140 580,115" fill="none" stroke="#6ee7b7" stroke-width="1" opacity="0.12" stroke-dasharray="3,3"/>
  <text x="450" y="275" font-family="ui-monospace,Menlo,monospace" font-size="11" fill="#fbbf24" text-anchor="middle" letter-spacing="2" font-weight="600">TOOLS &amp; DEPLOY</text>
  <g stroke="#fbbf24" stroke-width="1" opacity="0.15">
    <line x1="180" y1="335" x2="300" y2="325"/>
    <line x1="300" y1="325" x2="420" y2="345"/>
    <line x1="420" y1="345" x2="300" y2="325"/>
    <line x1="300" y1="325" x2="550" y2="330"/>
    <line x1="550" y1="330" x2="660" y2="340"/>
    <line x1="660" y1="340" x2="770" y2="330"/>
    <line x1="180" y1="335" x2="420" y2="345"/>
  </g>
  <g><circle cx="180" cy="335" r="9" fill="url(#starglow3)"/><circle cx="180" cy="335" r="4" fill="#fbbf24"><animate attributeName="opacity" values="1;0.5;1" dur="2.5s" begin="0.3s" repeatCount="indefinite"/></circle><text x="180" y="360" font-family="ui-monospace,Menlo,monospace" font-size="11" fill="#cbd5e1" text-anchor="middle">Git</text></g>
  <g><circle cx="300" cy="325" r="13" fill="url(#starglow3)"/><circle cx="300" cy="325" r="5" fill="#fbbf24"><animate attributeName="opacity" values="1;0.7;1" dur="2.2s" begin="0.7s" repeatCount="indefinite"/></circle><text x="300" y="352" font-family="ui-monospace,Menlo,monospace" font-size="12" fill="#f1f5f9" text-anchor="middle" font-weight="700">GitHub</text></g>
  <g><circle cx="420" cy="345" r="10" fill="url(#starglow3)"/><circle cx="420" cy="345" r="4" fill="#fbbf24"><animate attributeName="opacity" values="1;0.5;1" dur="2.8s" begin="1.2s" repeatCount="indefinite"/></circle><text x="420" y="370" font-family="ui-monospace,Menlo,monospace" font-size="11" fill="#cbd5e1" text-anchor="middle">VS Code</text></g>
  <g><circle cx="550" cy="330" r="10" fill="url(#starglow3)"/><circle cx="550" cy="330" r="4" fill="#fbbf24"><animate attributeName="opacity" values="1;0.5;1" dur="3.1s" begin="1.6s" repeatCount="indefinite"/></circle><text x="550" y="355" font-family="ui-monospace,Menlo,monospace" font-size="11" fill="#cbd5e1" text-anchor="middle">Vercel</text></g>
  <g><circle cx="660" cy="340" r="10" fill="url(#starglow3)"/><circle cx="660" cy="340" r="4" fill="#fbbf24"><animate attributeName="opacity" values="1;0.5;1" dur="2.7s" begin="2s" repeatCount="indefinite"/></circle><text x="660" y="365" font-family="ui-monospace,Menlo,monospace" font-size="11" fill="#cbd5e1" text-anchor="middle">Netlify</text></g>
  <g><circle cx="770" cy="330" r="9" fill="url(#starglow3)"/><circle cx="770" cy="330" r="4" fill="#fbbf24"><animate attributeName="opacity" values="0.9;0.5;0.9" dur="3s" begin="2.4s" repeatCount="indefinite"/></circle><text x="770" y="355" font-family="ui-monospace,Menlo,monospace" font-size="11" fill="#cbd5e1" text-anchor="middle">Figma</text></g>
  <g font-family="ui-monospace,Menlo,monospace" font-size="10" fill="#475569">
    <circle cx="30" cy="395" r="5" fill="#6ee7b7"/><text x="42" y="399">core</text>
    <circle cx="90" cy="395" r="3.5" fill="#38bdf8"/><text x="100" y="399">strong</text>
    <circle cx="160" cy="395" r="2.5" fill="#94a3b8"/><text x="168" y="399">familiar</text>
    <text x="870" y="399" text-anchor="end">gokul.raj@ojiva.ai</text>
  </g>
</svg>
