<svg xmlns="http://www.w3.org/2000/svg" viewBox="0 0 900 400" width="900" height="400" role="img" aria-label="Gokul's GitHub activity dashboard">
  <defs>
    <linearGradient id="bg" x1="0" y1="0" x2="0" y2="1"><stop offset="0" stop-color="#0f172a"/><stop offset="1" stop-color="#0b1220"/></linearGradient>
    <linearGradient id="titlebar" x1="0" y1="0" x2="0" y2="1"><stop offset="0" stop-color="#1e293b"/><stop offset="1" stop-color="#172033"/></linearGradient>
    <linearGradient id="metricbg" x1="0" y1="0" x2="0" y2="1"><stop offset="0" stop-color="#1e293b" stop-opacity="0.6"/><stop offset="1" stop-color="#0f172a" stop-opacity="0.9"/></linearGradient>
    <linearGradient id="jsBar" x1="0" y1="0" x2="1" y2="0"><stop offset="0" stop-color="#fbbf24"/><stop offset="1" stop-color="#f59e0b"/></linearGradient>
    <linearGradient id="htmlBar" x1="0" y1="0" x2="1" y2="0"><stop offset="0" stop-color="#ef4444"/><stop offset="1" stop-color="#dc2626"/></linearGradient>
    <linearGradient id="cssBar" x1="0" y1="0" x2="1" y2="0"><stop offset="0" stop-color="#38bdf8"/><stop offset="1" stop-color="#0ea5e9"/></linearGradient>
    <linearGradient id="otherBar" x1="0" y1="0" x2="1" y2="0"><stop offset="0" stop-color="#6ee7b7"/><stop offset="1" stop-color="#10b981"/></linearGradient>
    <pattern id="dots" x="0" y="0" width="22" height="22" patternUnits="userSpaceOnUse"><circle cx="11" cy="11" r="0.6" fill="#1e293b" opacity="0.55"/></pattern>
  </defs>
  <rect x="0.5" y="0.5" width="899" height="399" rx="14" fill="url(#bg)" stroke="#1e293b" stroke-width="1"/>
  <rect x="0.5" y="0.5" width="899" height="399" rx="14" fill="url(#dots)"/>
  <path d="M 0.5,14 A 13.5,13.5 0 0 1 14,0.5 L 886,0.5 A 13.5,13.5 0 0 1 899.5,14 L 899.5,44 L 0.5,44 Z" fill="url(#titlebar)"/>
  <line x1="0" y1="44" x2="900" y2="44" stroke="#0b1220" stroke-width="1"/>
  <circle cx="24" cy="22" r="7" fill="#ef4444"/>
  <circle cx="46" cy="22" r="7" fill="#eab308"/>
  <circle cx="68" cy="22" r="7" fill="#22c55e"/>
  <text x="450" y="27" font-family="ui-monospace,SFMono-Regular,Menlo,monospace" font-size="12" fill="#64748b" text-anchor="middle">~/stats — pulse.log</text>
  <g><circle cx="810" cy="22" r="4" fill="#38bdf8"><animate attributeName="opacity" values="1;0.35;1" dur="1.6s" repeatCount="indefinite"/></circle><text x="822" y="26" font-family="ui-monospace,Menlo,monospace" font-size="11" fill="#38bdf8" letter-spacing="1">SYNC</text></g>
  <g font-family="ui-monospace,SFMono-Regular,Menlo,monospace">
    <rect x="30" y="70" width="195" height="90" rx="8" fill="url(#metricbg)" stroke="#1e293b" stroke-width="1"/>
    <text x="45" y="92" font-size="10" fill="#64748b" letter-spacing="2">REPOSITORIES</text>
    <text x="45" y="132" font-size="34" fill="#6ee7b7" font-weight="700" opacity="0">78<animate attributeName="opacity" from="0" to="1" dur="0.8s" begin="0.3s" fill="freeze"/></text>
    <text x="45" y="150" font-size="10" fill="#94a3b8">public · shipping since 2023</text>
    <rect x="240" y="70" width="195" height="90" rx="8" fill="url(#metricbg)" stroke="#1e293b" stroke-width="1"/>
    <text x="255" y="92" font-size="10" fill="#64748b" letter-spacing="2">CONTRIBUTIONS</text>
    <text x="255" y="132" font-size="34" fill="#38bdf8" font-weight="700" opacity="0">159<animate attributeName="opacity" from="0" to="1" dur="0.8s" begin="0.6s" fill="freeze"/></text>
    <text x="255" y="150" font-size="10" fill="#94a3b8">last 12 months</text>
    <rect x="450" y="70" width="195" height="90" rx="8" fill="url(#metricbg)" stroke="#1e293b" stroke-width="1"/>
    <text x="465" y="92" font-size="10" fill="#64748b" letter-spacing="2">NETWORK</text>
    <text x="465" y="132" font-size="34" fill="#fbbf24" font-weight="700" opacity="0">6<animate attributeName="opacity" from="0" to="1" dur="0.8s" begin="0.9s" fill="freeze"/></text>
    <text x="465" y="150" font-size="10" fill="#94a3b8">followers · 11 following</text>
    <rect x="660" y="70" width="210" height="90" rx="8" fill="url(#metricbg)" stroke="#1e293b" stroke-width="1"/>
    <text x="675" y="92" font-size="10" fill="#64748b" letter-spacing="2">LONGEST STREAK</text>
    <text x="675" y="132" font-size="34" fill="#ef4444" font-weight="700" opacity="0">3<animate attributeName="opacity" from="0" to="1" dur="0.8s" begin="1.2s" fill="freeze"/></text>
    <text x="710" y="132" font-size="16" fill="#f59e0b" opacity="0">days<animate attributeName="opacity" from="0" to="1" dur="0.8s" begin="1.2s" fill="freeze"/></text>
    <text x="830" y="128" font-size="22" opacity="0">🔥<animate attributeName="opacity" from="0" to="1" dur="0.8s" begin="1.4s" fill="freeze"/></text>
    <text x="675" y="150" font-size="10" fill="#94a3b8">Feb 15 → 17, 2025</text>
  </g>
  <g font-family="ui-monospace,SFMono-Regular,Menlo,monospace">
    <text x="30" y="200" font-size="11" fill="#64748b" letter-spacing="2">// LANGUAGE BREAKDOWN</text>
    <line x1="215" y1="197" x2="870" y2="197" stroke="#1e293b" stroke-width="1"/>
    <text x="30" y="230" font-size="12" fill="#f1f5f9">JavaScript</text>
    <rect x="140" y="220" width="620" height="10" rx="5" fill="#1e293b"/>
    <rect x="140" y="220" width="0" height="10" rx="5" fill="url(#jsBar)"><animate attributeName="width" from="0" to="272" dur="1.4s" begin="1.6s" fill="freeze"/></rect>
    <text x="770" y="230" font-size="11" fill="#94a3b8" opacity="0">44%<animate attributeName="opacity" from="0" to="1" dur="0.5s" begin="2.9s" fill="freeze"/></text>
    <text x="810" y="230" font-size="10" fill="#475569" opacity="0">· primary<animate attributeName="opacity" from="0" to="1" dur="0.5s" begin="3s" fill="freeze"/></text>
    <text x="30" y="258" font-size="12" fill="#f1f5f9">HTML</text>
    <rect x="140" y="248" width="620" height="10" rx="5" fill="#1e293b"/>
    <rect x="140" y="248" width="0" height="10" rx="5" fill="url(#htmlBar)"><animate attributeName="width" from="0" to="217" dur="1.3s" begin="1.9s" fill="freeze"/></rect>
    <text x="770" y="258" font-size="11" fill="#94a3b8" opacity="0">35%<animate attributeName="opacity" from="0" to="1" dur="0.5s" begin="3.1s" fill="freeze"/></text>
    <text x="810" y="258" font-size="10" fill="#475569" opacity="0">· markup<animate attributeName="opacity" from="0" to="1" dur="0.5s" begin="3.2s" fill="freeze"/></text>
    <text x="30" y="286" font-size="12" fill="#f1f5f9">CSS</text>
    <rect x="140" y="276" width="620" height="10" rx="5" fill="#1e293b"/>
    <rect x="140" y="276" width="0" height="10" rx="5" fill="url(#cssBar)"><animate attributeName="width" from="0" to="93" dur="1.1s" begin="2.2s" fill="freeze"/></rect>
    <text x="770" y="286" font-size="11" fill="#94a3b8" opacity="0">15%<animate attributeName="opacity" from="0" to="1" dur="0.5s" begin="3.3s" fill="freeze"/></text>
    <text x="810" y="286" font-size="10" fill="#475569" opacity="0">· styling<animate attributeName="opacity" from="0" to="1" dur="0.5s" begin="3.4s" fill="freeze"/></text>
    <text x="30" y="314" font-size="12" fill="#f1f5f9">Others</text>
    <rect x="140" y="304" width="620" height="10" rx="5" fill="#1e293b"/>
    <rect x="140" y="304" width="0" height="10" rx="5" fill="url(#otherBar)"><animate attributeName="width" from="0" to="37" dur="0.9s" begin="2.5s" fill="freeze"/></rect>
    <text x="770" y="314" font-size="11" fill="#94a3b8" opacity="0">6%<animate attributeName="opacity" from="0" to="1" dur="0.5s" begin="3.5s" fill="freeze"/></text>
    <text x="810" y="314" font-size="10" fill="#475569" opacity="0">· misc<animate attributeName="opacity" from="0" to="1" dur="0.5s" begin="3.6s" fill="freeze"/></text>
  </g>
  <line x1="20" y1="345" x2="880" y2="345" stroke="#1e293b" stroke-width="1"/>
  <g font-family="ui-monospace,SFMono-Regular,Menlo,monospace" font-size="11">
    <text x="30" y="368" fill="#64748b">➜</text>
    <text x="46" y="368" fill="#38bdf8">~/gokulraj</text>
    <text x="128" y="368" fill="#94a3b8">$</text>
    <text x="140" y="368" fill="#f1f5f9">echo</text>
    <text x="180" y="368" fill="#a5f3fc">"active since Dec 5, 2023"</text>
    <text x="30" y="385" fill="#22c55e">✓</text>
    <text x="46" y="385" fill="#cbd5e1">Shipping every week · Bangalore, IN · </text>
    <text x="336" y="385" fill="#6ee7b7">gokul.raj@ojiva.ai</text>
  </g>
  <g><circle cx="855" cy="378" r="4" fill="#22c55e"><animate attributeName="opacity" values="1;0.3;1" dur="2s" repeatCount="indefinite"/></circle><text x="820" y="382" font-family="ui-monospace,Menlo,monospace" font-size="10" fill="#22c55e" text-anchor="end">live</text></g>
</svg>
